<svg width="72" height="72" viewBox="0 0 72 72" fill="none" xmlns="http://www.w3.org/2000/svg">
<path d="M59.9441 67.9445C60.4744 67.9445 60.986 67.7324 61.3603 67.358C61.7347 66.9837 61.9468 66.4721 61.9468 65.9417V18.4242C61.9468 17.95 61.7784 17.4946 61.4726 17.1327L51.0096 4.76668C50.629 4.31746 50.0675 4.05542 49.481 4.05542H12.0584C11.5281 4.05542 11.0165 4.26755 10.6421 4.6419C10.2678 5.01625 10.0557 5.52786 10.0557 6.05819V65.9417C10.0557 66.4721 10.2678 66.9837 10.6421 67.358C11.0165 67.7324 11.5281 67.9445 12.0584 67.9445H59.9441Z" fill="#1FB77A"/>
<path opacity="0.15" d="M61.9469 18.6488V18.4242C61.9469 17.95 61.7784 17.4946 61.4727 17.1327L51.0096 4.76668C50.629 4.31746 50.0675 4.05542 49.481 4.05542H49.3875V18.6488H61.9469Z" fill="black"/>
<path d="M34.0972 33.89L27.2341 21.7423H30.7343L34.1658 28.1624C34.8147 29.3291 35.3325 30.396 36.1561 31.8373H36.2934C36.9797 30.396 37.4601 29.3291 38.0778 28.1624L41.4407 21.7423H44.7661L37.9031 34.0647L45.2466 46.8986H41.7464L38.0403 40.1042C37.3852 38.8688 36.6989 37.5648 35.8753 36.055H35.7381C35.0206 37.5648 34.3654 38.8688 33.7103 40.1042L30.0791 46.8986H26.7537L34.0972 33.89Z" fill="white"/>
<path d="M28.4255 57.3304C28.4255 55.4587 29.767 54.373 31.2893 54.373C31.9819 54.373 32.5122 54.6413 32.924 54.997L32.219 55.9453C31.9382 55.702 31.6761 55.5772 31.3579 55.5772C30.5032 55.5772 29.9229 56.2698 29.9229 57.3304C29.9229 58.3848 30.5032 59.0649 31.3143 59.0649C31.7136 59.0649 32.0942 58.8715 32.4061 58.6157L32.9864 59.589C32.456 60.0569 31.776 60.2691 31.1521 60.2691C29.6047 60.2628 28.4255 59.1834 28.4255 57.3304ZM33.5229 59.4767L34.1968 58.5533C34.6959 58.9464 35.1763 59.1647 35.7004 59.1647C36.2619 59.1647 36.5115 58.9214 36.5115 58.572C36.5115 58.154 35.9313 57.9606 35.3385 57.7297C34.6273 57.4614 33.8037 57.0309 33.8037 56.0951C33.8037 55.0843 34.6273 54.373 35.8876 54.373C36.7112 54.373 37.3288 54.7162 37.803 55.0656L37.1417 55.9578C36.7423 55.677 36.3493 55.4774 35.9313 55.4774C35.4321 55.4774 35.1888 55.6958 35.1888 56.0202C35.1888 56.432 35.7378 56.5817 36.3306 56.8001C37.073 57.0808 37.8966 57.449 37.8966 58.4909C37.8966 59.4704 37.1229 60.2628 35.663 60.2628C34.908 60.2628 34.0782 59.9321 33.5229 59.4767ZM38.3645 54.5103H39.8495L40.673 57.3055C40.8103 57.8545 40.9725 58.441 41.1222 59.0087H41.1722C41.3094 58.4347 41.4716 57.8545 41.6214 57.3055L42.4449 54.5103H43.855L41.9832 60.1256H40.28L38.3645 54.5103Z" fill="white"/>
</svg>
