<svg width="72" height="72" viewBox="0 0 72 72" fill="none" xmlns="http://www.w3.org/2000/svg">
<g clip-path="url(#clip0_2726_7124)">
<path d="M16.29 65.4705L0.62775 38.3422C-0.20925 36.8932 -0.20925 35.1067 0.62775 33.6577L16.29 6.5306C17.1259 5.08273 18.6694 4.1906 20.34 4.18835H51.6791C53.3441 4.19623 54.8797 5.08835 55.7122 6.5306L71.3723 33.6577C72.2093 35.1067 72.2093 36.8932 71.3723 38.3422L55.71 65.4705C54.8741 66.9184 53.3306 67.8105 51.66 67.8127H20.3288C18.6604 67.8071 17.1225 66.915 16.2866 65.4705H16.29Z" fill="#4386FA"/>
<path opacity="0.1" d="M45.7841 27.2644C45.7841 27.2644 50.1379 37.7078 44.2024 43.6275C38.2669 49.5473 27.459 45.7583 27.459 45.7583L49.4437 67.8038H51.6757C53.3475 67.8015 54.891 66.9083 55.7257 65.4615L66.0937 47.5088L45.7841 27.2644Z" fill="black"/>
<path d="M50.9253 48.6338L46.1249 43.8222C46.0727 43.7686 46.0128 43.7231 45.9472 43.6872C47.989 41.0571 48.9513 37.7474 48.638 34.4325C48.3247 31.1176 46.7593 28.0469 44.2608 25.8459C41.7623 23.645 38.5186 22.4795 35.1907 22.5868C31.8627 22.6941 28.7009 24.0662 26.3494 26.4235C23.9978 28.7808 22.6335 31.946 22.5344 35.2742C22.4352 38.6024 23.6088 41.8432 25.8158 44.3363C28.0229 46.8294 31.0975 48.3872 34.4131 48.6924C37.7288 48.9976 41.0361 48.0271 43.6612 45.9788C43.6954 46.0407 43.7382 46.0975 43.7883 46.1475L48.5999 50.9592C48.7412 51.1003 48.9328 51.1796 49.1326 51.1796C49.3324 51.1796 49.5239 51.1003 49.6653 50.9592L50.9253 49.6992C51.0665 49.5578 51.1458 49.3662 51.1458 49.1665C51.1458 48.9667 51.0665 48.7751 50.9253 48.6338ZM35.5949 45.522C33.6479 45.5223 31.7446 44.9451 30.1256 43.8635C28.5066 42.782 27.2447 41.2446 26.4996 39.4459C25.7544 37.6471 25.5593 35.6677 25.9391 33.7581C26.3189 31.8485 27.2565 30.0944 28.6332 28.7177C30.0099 27.341 31.764 26.4034 33.6736 26.0236C35.5832 25.6438 37.5626 25.8389 39.3613 26.5841C41.1601 27.3293 42.6975 28.5911 43.779 30.2101C44.8606 31.8291 45.4377 33.7324 45.4375 35.6794C45.4372 38.2898 44.4001 40.7931 42.5544 42.6389C40.7086 44.4847 38.2052 45.5217 35.5949 45.522ZM29.3028 35.154V39.222C29.9294 40.3279 30.8362 41.2504 31.933 41.8939V35.1293L29.3028 35.154ZM34.2247 31.7813V42.7748C35.0941 42.935 35.9855 42.935 36.8549 42.7748V31.7813H34.2247ZM41.8342 39.213V36.8033H39.2062V41.8658C40.3015 41.224 41.2086 40.3052 41.8364 39.2018L41.8342 39.213Z" fill="white"/>
</g>
<defs>
<clipPath id="clip0_2726_7124">
<rect width="72" height="72" fill="white"/>
</clipPath>
</defs>
</svg>
