<svg width="72" height="72" viewBox="0 0 72 72" fill="none" xmlns="http://www.w3.org/2000/svg">
<path d="M61.3319 54.7009L46.623 46.2049C45.935 45.808 45.1509 45.6084 44.3568 45.628C43.5628 45.6476 42.7895 45.8856 42.1219 46.3159C41.4543 46.7462 40.9181 47.3521 40.5723 48.0672C40.2265 48.7822 40.0844 49.5787 40.1616 50.3693V66.9757C40.1877 68.1001 40.6527 69.1697 41.4572 69.9557C42.2617 70.7417 43.3418 71.1818 44.4665 71.1818C45.5912 71.1818 46.6713 70.7417 47.4758 69.9557C48.2803 69.1697 48.7453 68.1001 48.7714 66.9757V57.4253L57.0119 62.1912C58.0043 62.7641 59.1835 62.9193 60.2903 62.6226C61.3971 62.326 62.3407 61.6019 62.9136 60.6095C63.4865 59.6172 63.6417 58.4379 63.345 57.3311C63.0484 56.2243 62.3243 55.2807 61.3319 54.7078" fill="#29B5E8"/>
<path d="M24.7488 36.4965C24.7608 35.7428 24.5715 34.9995 24.2004 34.3434C23.8292 33.6873 23.2898 33.1421 22.6376 32.7641L7.92872 24.2704C7.44796 23.9758 6.91308 23.7805 6.35563 23.696C5.79817 23.6115 5.22943 23.6395 4.68297 23.7783C4.1365 23.9172 3.62338 24.164 3.17386 24.5044C2.72435 24.8447 2.34755 25.2717 2.06569 25.76C1.78384 26.2483 1.60264 26.7881 1.53278 27.3476C1.46292 27.9071 1.50582 28.4749 1.65895 29.0175C1.81207 29.5602 2.07233 30.0666 2.42435 30.5071C2.77638 30.9475 3.21304 31.313 3.70859 31.5819L12.1883 36.4733L3.70859 41.3739C2.73928 41.934 2.03193 42.856 1.7419 43.9373C1.45187 45.0186 1.60288 46.1708 2.16175 47.1409C2.72234 48.1097 3.6443 48.8166 4.72542 49.1066C5.80654 49.3966 6.95853 49.246 7.92872 48.6877L22.6376 40.1963C23.2844 39.8205 23.8204 39.2803 24.1912 38.6305C24.5619 37.9808 24.7543 37.2446 24.7488 36.4965Z" fill="#29B5E8"/>
<path d="M11.2662 18.2527L25.9751 26.744C26.6453 27.1153 27.4002 27.3064 28.1663 27.2986C28.9323 27.2909 29.6833 27.0846 30.3458 26.6999C31.0083 26.3152 31.5597 25.7652 31.9461 25.1037C32.3325 24.4422 32.5407 23.6917 32.5504 22.9257V5.90582C32.5637 5.33208 32.4622 4.76146 32.2518 4.2275C32.0415 3.69355 31.7265 3.20703 31.3255 2.79654C30.9244 2.38604 30.4453 2.05987 29.9164 1.83717C29.3875 1.61447 28.8194 1.49976 28.2455 1.49976C27.6716 1.49976 27.1035 1.61447 26.5745 1.83717C26.0456 2.05987 25.5665 2.38604 25.1655 2.79654C24.7644 3.20703 24.4494 3.69355 24.2391 4.2275C24.0287 4.76146 23.9272 5.33208 23.9406 5.90582V15.591L15.5793 10.7693C15.0879 10.4856 14.5455 10.3016 13.983 10.2275C13.4205 10.1535 12.8489 10.191 12.3008 10.3379C11.7528 10.4847 11.2391 10.7381 10.789 11.0835C10.3389 11.4289 9.96124 11.8596 9.67759 12.351C9.39393 12.8423 9.20984 13.3848 9.13581 13.9473C9.06178 14.5098 9.09928 15.0814 9.24615 15.6294C9.39302 16.1774 9.6464 16.6911 9.99181 17.1412C10.3372 17.5913 10.7679 17.969 11.2593 18.2527" fill="#29B5E8"/>
<path d="M44.3444 37.1817C44.3229 37.5578 44.1748 37.9155 43.924 38.1966L38.0943 44.0263C37.8138 44.278 37.4557 44.4263 37.0794 44.4467H35.586C35.2096 44.4263 34.8515 44.278 34.571 44.0263L28.7344 38.1966C28.4836 37.9155 28.3354 37.5578 28.314 37.1817V35.6975C28.3332 35.3209 28.4817 34.9625 28.7344 34.6826L34.571 28.8459C34.8515 28.5942 35.2096 28.4459 35.586 28.4255H37.0701C37.4464 28.4459 37.8045 28.5942 38.0851 28.8459L43.9147 34.6826C44.1674 34.9625 44.3159 35.3209 44.3351 35.6975L44.3444 37.1817ZM39.1395 36.4686V36.4059C39.1235 36.1301 39.0156 35.8676 38.8329 35.6604L37.1119 33.944C36.9082 33.7547 36.6441 33.6437 36.3663 33.6304H36.3036C36.0264 33.646 35.7631 33.7567 35.5581 33.944L33.8417 35.6604C33.657 35.8663 33.5487 36.1296 33.5351 36.4059V36.4686C33.5487 36.745 33.657 37.0082 33.8417 37.2142L35.5581 38.9352C35.7653 39.1179 36.0278 39.2258 36.3036 39.2418H36.3663C36.6427 39.2282 36.9059 39.1199 37.1119 38.9352L38.8329 37.2142C39.0177 37.0082 39.1259 36.745 39.1395 36.4686Z" fill="#29B5E8"/>
<path d="M46.6229 26.744L61.3318 18.2527C61.8232 17.969 62.2539 17.5913 62.5993 17.1412C62.9447 16.6911 63.1981 16.1774 63.3449 15.6294C63.4918 15.0814 63.5293 14.5098 63.4553 13.9473C63.3812 13.3848 63.1971 12.8423 62.9135 12.351C62.6298 11.8596 62.2522 11.4289 61.8021 11.0835C61.352 10.7381 60.8382 10.4847 60.2902 10.3379C59.7422 10.191 59.1706 10.1535 58.6081 10.2275C58.0456 10.3016 57.5032 10.4856 57.0118 10.7693L48.7713 15.5329V5.90582C48.7846 5.33208 48.6831 4.76146 48.4728 4.2275C48.2624 3.69355 47.9475 3.20703 47.5464 2.79654C47.1453 2.38604 46.6662 2.05987 46.1373 1.83717C45.6084 1.61447 45.0403 1.49976 44.4664 1.49976C43.8925 1.49976 43.3244 1.61447 42.7955 1.83717C42.2665 2.05987 41.7875 2.38604 41.3864 2.79654C40.9853 3.20703 40.6704 3.69355 40.46 4.2275C40.2497 4.76146 40.1482 5.33208 40.1615 5.90582V22.5866C40.084 23.3771 40.226 24.1736 40.5719 24.8886C40.9179 25.6035 41.4543 26.2092 42.1223 26.639C42.7902 27.0688 43.5638 27.306 44.3578 27.3245C45.1519 27.343 45.9356 27.1422 46.6229 26.744Z" fill="#29B5E8"/>
<path d="M28.9248 45.7009C27.9132 45.5085 26.8662 45.6866 25.9751 46.2026L11.2662 54.7009C10.2729 55.2738 9.5479 56.2177 9.25062 57.3252C8.95334 58.4326 9.10817 59.6128 9.68104 60.606C10.2539 61.5993 11.1979 62.3244 12.3053 62.6216C13.4128 62.9189 14.5929 62.7641 15.5862 62.1912L23.9475 57.3695V66.9804C23.9736 68.1048 24.4386 69.1744 25.2431 69.9604C26.0476 70.7464 27.1277 71.1864 28.2524 71.1864C29.3771 71.1864 30.4572 70.7464 31.2617 69.9604C32.0662 69.1744 32.5312 68.1048 32.5573 66.9804V49.9535C32.5572 48.9283 32.1913 47.9368 31.5254 47.1572C30.8596 46.3776 29.9374 45.8613 28.9248 45.7009Z" fill="#29B5E8"/>
<path d="M70.5317 25.7685C70.2485 25.2761 69.8709 24.8444 69.4205 24.4981C68.9702 24.1519 68.4559 23.8979 67.9072 23.7508C67.3586 23.6036 66.7862 23.5662 66.2231 23.6406C65.6599 23.7151 65.117 23.8999 64.6253 24.1845L49.9164 32.6759C49.2553 33.0659 48.7073 33.6216 48.3266 34.2882C47.9458 34.9548 47.7456 35.7092 47.7456 36.4768C47.7456 37.2444 47.9458 37.9988 48.3266 38.6654C48.7073 39.3319 49.2553 39.8877 49.9164 40.2777L64.6253 48.7737C65.117 49.0574 65.6597 49.2414 66.2225 49.3153C66.7853 49.3892 67.3572 49.3515 67.9054 49.2045C68.4536 49.0574 68.9675 48.8037 69.4178 48.458C69.868 48.1123 70.2457 47.6814 70.5293 47.1897C70.813 46.698 70.997 46.1553 71.0709 45.5925C71.1449 45.0297 71.1072 44.4579 70.9601 43.9096C70.813 43.3614 70.5594 42.8475 70.2137 42.3973C69.868 41.9471 69.437 41.5693 68.9453 41.2857L60.6166 36.478L68.9453 31.6702C69.4378 31.3879 69.8696 31.0111 70.2159 30.5614C70.5622 30.1117 70.8163 29.598 70.9635 29.0498C71.1107 28.5016 71.1481 27.9297 71.0736 27.367C70.9991 26.8043 70.8141 26.2619 70.5293 25.7709" fill="#29B5E8"/>
</svg>
